<svg width="800" height="400" viewBox="0 0 800 400" fill="none" xmlns="http://www.w3.org/2000/svg">
  <defs>
    <linearGradient id="bg" x1="0%" y1="0%" x2="100%" y2="100%">
      <stop offset="0%" style="stop-color:#8B5CF6;stop-opacity:1" />
      <stop offset="50%" style="stop-color:#7C3AED;stop-opacity:1" />
      <stop offset="100%" style="stop-color:#6D28D9;stop-opacity:1" />
    </linearGradient>
    <linearGradient id="brain" x1="0%" y1="0%" x2="100%" y2="100%">
      <stop offset="0%" style="stop-color:#FFFFFF;stop-opacity:1" />
      <stop offset="100%" style="stop-color:#F9FAFB;stop-opacity:1" />
    </linearGradient>
  </defs>
  
  <!-- Background -->
  <rect width="800" height="400" fill="url(#bg)"/>
  
  <!-- Decorative elements -->
  <circle cx="100" cy="100" r="60" fill="white" opacity="0.1"/>
  <circle cx="700" cy="300" r="80" fill="white" opacity="0.08"/>
  <circle cx="650" cy="100" r="40" fill="white" opacity="0.12"/>
  
  <!-- Main content area -->
  <rect x="50" y="50" width="700" height="300" rx="20" fill="white" opacity="0.95"/>
  
  <!-- Color psychology illustration -->
  <g transform="translate(400, 150)">
    <!-- Brain with color waves -->
    <g transform="translate(0, -20)">
      <ellipse cx="0" cy="0" rx="60" ry="40" fill="url(#brain)" stroke="#8B5CF6" stroke-width="3"/>
      
      <!-- Brain sections -->
      <ellipse cx="-20" cy="-10" rx="15" ry="12" fill="#EF4444" opacity="0.7"/>
      <ellipse cx="20" cy="-10" rx="15" ry="12" fill="#3B82F6" opacity="0.7"/>
      <ellipse cx="0" cy="15" rx="25" ry="15" fill="#10B981" opacity="0.7"/>
      
      <!-- Color waves -->
      <g>
        <path d="M -80 -30 Q -60 -40 -40 -30 Q -20 -20 0 -30" stroke="#EF4444" stroke-width="2" fill="none" opacity="0.8"/>
        <path d="M -80 -10 Q -60 -20 -40 -10 Q -20 0 0 -10" stroke="#3B82F6" stroke-width="2" fill="none" opacity="0.8"/>
        <path d="M -80 10 Q -60 0 -40 10 Q -20 20 0 10" stroke="#10B981" stroke-width="2" fill="none" opacity="0.8"/>
        <path d="M -80 30 Q -60 20 -40 30 Q -20 40 0 30" stroke="#F59E0B" stroke-width="2" fill="none" opacity="0.8"/>
      </g>
      
      <g>
        <path d="M 80 -30 Q 60 -40 40 -30 Q 20 -20 0 -30" stroke="#EF4444" stroke-width="2" fill="none" opacity="0.8"/>
        <path d="M 80 -10 Q 60 -20 40 -10 Q 20 0 0 -10" stroke="#3B82F6" stroke-width="2" fill="none" opacity="0.8"/>
        <path d="M 80 10 Q 60 0 40 10 Q 20 20 0 10" stroke="#10B981" stroke-width="2" fill="none" opacity="0.8"/>
        <path d="M 80 30 Q 60 20 40 30 Q 20 40 0 30" stroke="#F59E0B" stroke-width="2" fill="none" opacity="0.8"/>
      </g>
    </g>
    
    <!-- Color emotions -->
    <g transform="translate(-120, -60)">
      <circle cx="0" cy="0" r="20" fill="#EF4444"/>
      <text x="0" y="3" text-anchor="middle" fill="white" font-family="Arial, sans-serif" font-size="10" font-weight="bold">❤️</text>
      <text x="0" y="35" text-anchor="middle" fill="#374151" font-family="Arial, sans-serif" font-size="9" font-weight="bold">Passion</text>
    </g>
    
    <g transform="translate(-40, -60)">
      <circle cx="0" cy="0" r="20" fill="#3B82F6"/>
      <text x="0" y="3" text-anchor="middle" fill="white" font-family="Arial, sans-serif" font-size="10" font-weight="bold">🤝</text>
      <text x="0" y="35" text-anchor="middle" fill="#374151" font-family="Arial, sans-serif" font-size="9" font-weight="bold">Trust</text>
    </g>
    
    <g transform="translate(40, -60)">
      <circle cx="0" cy="0" r="20" fill="#10B981"/>
      <text x="0" y="3" text-anchor="middle" fill="white" font-family="Arial, sans-serif" font-size="10" font-weight="bold">🌱</text>
      <text x="0" y="35" text-anchor="middle" fill="#374151" font-family="Arial, sans-serif" font-size="9" font-weight="bold">Growth</text>
    </g>
    
    <g transform="translate(120, -60)">
      <circle cx="0" cy="0" r="20" fill="#F59E0B"/>
      <text x="0" y="3" text-anchor="middle" fill="white" font-family="Arial, sans-serif" font-size="10" font-weight="bold">⚡</text>
      <text x="0" y="35" text-anchor="middle" fill="#374151" font-family="Arial, sans-serif" font-size="9" font-weight="bold">Energy</text>
    </g>
    
    <!-- Marketing elements -->
    <g transform="translate(-120, 60)">
      <rect x="-15" y="-15" width="30" height="20" rx="4" fill="#EC4899"/>
      <text x="0" y="-2" text-anchor="middle" fill="white" font-family="Arial, sans-serif" font-size="10" font-weight="bold">📱</text>
      <text x="0" y="20" text-anchor="middle" fill="#374151" font-family="Arial, sans-serif" font-size="8" font-weight="bold">Mobile</text>
    </g>
    
    <g transform="translate(-40, 60)">
      <rect x="-15" y="-15" width="30" height="20" rx="4" fill="#8B5CF6"/>
      <text x="0" y="-2" text-anchor="middle" fill="white" font-family="Arial, sans-serif" font-size="10" font-weight="bold">🛒</text>
      <text x="0" y="20" text-anchor="middle" fill="#374151" font-family="Arial, sans-serif" font-size="8" font-weight="bold">E-commerce</text>
    </g>
    
    <g transform="translate(40, 60)">
      <rect x="-15" y="-15" width="30" height="20" rx="4" fill="#10B981"/>
      <text x="0" y="-2" text-anchor="middle" fill="white" font-family="Arial, sans-serif" font-size="10" font-weight="bold">🏢</text>
      <text x="0" y="20" text-anchor="middle" fill="#374151" font-family="Arial, sans-serif" font-size="8" font-weight="bold">Brand</text>
    </g>
    
    <g transform="translate(120, 60)">
      <rect x="-15" y="-15" width="30" height="20" rx="4" fill="#F59E0B"/>
      <text x="0" y="-2" text-anchor="middle" fill="white" font-family="Arial, sans-serif" font-size="10" font-weight="bold">📊</text>
      <text x="0" y="20" text-anchor="middle" fill="#374151" font-family="Arial, sans-serif" font-size="8" font-weight="bold">Analytics</text>
    </g>
  </g>
  
  <!-- Title -->
  <text x="400" y="280" text-anchor="middle" fill="#1F2937" font-family="Arial, sans-serif" font-size="24" font-weight="bold">Color Psychology Marketing</text>
  
  <!-- Subtitle -->
  <text x="400" y="310" text-anchor="middle" fill="#6B7280" font-family="Arial, sans-serif" font-size="16">How Colors Influence Consumer Behavior</text>
  
  <!-- Decorative lines -->
  <line x1="200" y1="330" x2="600" y2="330" stroke="#8B5CF6" stroke-width="2" opacity="0.3"/>
  <line x1="250" y1="340" x2="550" y2="340" stroke="#8B5CF6" stroke-width="1" opacity="0.2"/>
</svg>