<svg width="800" height="400" viewBox="0 0 800 400" fill="none" xmlns="http://www.w3.org/2000/svg">
  <defs>
    <linearGradient id="bg" x1="0%" y1="0%" x2="100%" y2="100%">
      <stop offset="0%" style="stop-color:#F59E0B;stop-opacity:1" />
      <stop offset="50%" style="stop-color:#D97706;stop-opacity:1" />
      <stop offset="100%" style="stop-color:#B45309;stop-opacity:1" />
    </linearGradient>
    <linearGradient id="chart" x1="0%" y1="0%" x2="100%" y2="100%">
      <stop offset="0%" style="stop-color:#FFFFFF;stop-opacity:1" />
      <stop offset="100%" style="stop-color:#F9FAFB;stop-opacity:1" />
    </linearGradient>
  </defs>
  
  <!-- Background -->
  <rect width="800" height="400" fill="url(#bg)"/>
  
  <!-- Decorative elements -->
  <circle cx="100" cy="100" r="60" fill="white" opacity="0.1"/>
  <circle cx="700" cy="300" r="80" fill="white" opacity="0.08"/>
  <circle cx="650" cy="100" r="40" fill="white" opacity="0.12"/>
  
  <!-- Main content area -->
  <rect x="50" y="50" width="700" height="300" rx="20" fill="white" opacity="0.95"/>
  
  <!-- Lead scoring illustration -->
  <g transform="translate(400, 150)">
    <!-- Scoring chart -->
    <g transform="translate(-100, -40)">
      <rect x="0" y="0" width="200" height="120" rx="8" fill="url(#chart)" stroke="#E5E7EB" stroke-width="2"/>
      
      <!-- Chart bars -->
      <rect x="20" y="80" width="25" height="40" rx="3" fill="#EF4444"/>
      <rect x="55" y="60" width="25" height="60" rx="3" fill="#F59E0B"/>
      <rect x="90" y="40" width="25" height="80" rx="3" fill="#10B981"/>
      <rect x="125" y="20" width="25" height="100" rx="3" fill="#3B82F6"/>
      <rect x="160" y="10" width="25" height="110" rx="3" fill="#8B5CF6"/>
      
      <!-- Chart labels -->
      <text x="32" y="95" text-anchor="middle" fill="#374151" font-family="Arial, sans-serif" font-size="8" font-weight="bold">1</text>
      <text x="67" y="75" text-anchor="middle" fill="#374151" font-family="Arial, sans-serif" font-size="8" font-weight="bold">2</text>
      <text x="102" y="55" text-anchor="middle" fill="#374151" font-family="Arial, sans-serif" font-size="8" font-weight="bold">3</text>
      <text x="137" y="35" text-anchor="middle" fill="#374151" font-family="Arial, sans-serif" font-size="8" font-weight="bold">4</text>
      <text x="172" y="25" text-anchor="middle" fill="#374151" font-family="Arial, sans-serif" font-size="8" font-weight="bold">5</text>
      
      <!-- Y-axis labels -->
      <text x="10" y="25" text-anchor="middle" fill="#6B7280" font-family="Arial, sans-serif" font-size="8">100</text>
      <text x="10" y="50" text-anchor="middle" fill="#6B7280" font-family="Arial, sans-serif" font-size="8">75</text>
      <text x="10" y="75" text-anchor="middle" fill="#6B7280" font-family="Arial, sans-serif" font-size="8">50</text>
      <text x="10" y="100" text-anchor="middle" fill="#6B7280" font-family="Arial, sans-serif" font-size="8">25</text>
      <text x="10" y="125" text-anchor="middle" fill="#6B7280" font-family="Arial, sans-serif" font-size="8">0</text>
    </g>
    
    <!-- Lead scoring factors -->
    <g transform="translate(120, -40)">
      <rect x="0" y="0" width="80" height="80" rx="8" fill="#F3F4F6" stroke="#E5E7EB" stroke-width="1"/>
      
      <!-- Factors -->
      <g>
        <circle cx="15" cy="15" r="6" fill="#3B82F6"/>
        <text x="15" y="18" text-anchor="middle" fill="white" font-family="Arial, sans-serif" font-size="6" font-weight="bold">📧</text>
        <text x="25" y="18" fill="#374151" font-family="Arial, sans-serif" font-size="8">Email</text>
      </g>
      
      <g>
        <circle cx="15" cy="30" r="6" fill="#10B981"/>
        <text x="15" y="33" text-anchor="middle" fill="white" font-family="Arial, sans-serif" font-size="6" font-weight="bold">🏢</text>
        <text x="25" y="33" fill="#374151" font-family="Arial, sans-serif" font-size="8">Company</text>
      </g>
      
      <g>
        <circle cx="15" cy="45" r="6" fill="#F59E0B"/>
        <text x="15" y="48" text-anchor="middle" fill="white" font-family="Arial, sans-serif" font-size="6" font-weight="bold">💼</text>
        <text x="25" y="48" fill="#374151" font-family="Arial, sans-serif" font-size="8">Role</text>
      </g>
      
      <g>
        <circle cx="15" cy="60" r="6" fill="#EF4444"/>
        <text x="15" y="63" text-anchor="middle" fill="white" font-family="Arial, sans-serif" font-size="6" font-weight="bold">🎯</text>
        <text x="25" y="63" fill="#374151" font-family="Arial, sans-serif" font-size="8">Behavior</text>
      </g>
    </g>
    
    <!-- Scoring levels -->
    <g transform="translate(-150, 40)">
      <rect x="0" y="0" width="25" height="15" rx="3" fill="#EF4444"/>
      <text x="12" y="10" text-anchor="middle" fill="white" font-family="Arial, sans-serif" font-size="8" font-weight="bold">Cold</text>
    </g>
    
    <g transform="translate(-100, 40)">
      <rect x="0" y="0" width="25" height="15" rx="3" fill="#F59E0B"/>
      <text x="12" y="10" text-anchor="middle" fill="white" font-family="Arial, sans-serif" font-size="8" font-weight="bold">Warm</text>
    </g>
    
    <g transform="translate(-50, 40)">
      <rect x="0" y="0" width="25" height="15" rx="3" fill="#10B981"/>
      <text x="12" y="10" text-anchor="middle" fill="white" font-family="Arial, sans-serif" font-size="8" font-weight="bold">Hot</text>
    </g>
    
    <g transform="translate(0, 40)">
      <rect x="0" y="0" width="25" height="15" rx="3" fill="#3B82F6"/>
      <text x="12" y="10" text-anchor="middle" fill="white" font-family="Arial, sans-serif" font-size="8" font-weight="bold">Ready</text>
    </g>
    
    <g transform="translate(50, 40)">
      <rect x="0" y="0" width="25" height="15" rx="3" fill="#8B5CF6"/>
      <text x="12" y="10" text-anchor="middle" fill="white" font-family="Arial, sans-serif" font-size="8" font-weight="bold">VIP</text>
    </g>
  </g>
  
  <!-- Title -->
  <text x="400" y="280" text-anchor="middle" fill="#1F2937" font-family="Arial, sans-serif" font-size="24" font-weight="bold">Lead Scoring Strategies</text>
  
  <!-- Subtitle -->
  <text x="400" y="310" text-anchor="middle" fill="#6B7280" font-family="Arial, sans-serif" font-size="16">Identify High-Value Prospects</text>
  
  <!-- Decorative lines -->
  <line x1="200" y1="330" x2="600" y2="330" stroke="#F59E0B" stroke-width="2" opacity="0.3"/>
  <line x1="250" y1="340" x2="550" y2="340" stroke="#F59E0B" stroke-width="1" opacity="0.2"/>
</svg>